<svg id="Layer_1" data-name="Layer 1" xmlns="http://www.w3.org/2000/svg" viewBox="0 0 262.46 262.25"><defs><style>.cls-1{fill:#3c00ff;}</style></defs><path class="cls-1" d="M373.11,166.51H467.7c.14,1.55.4,3.09.4,4.64,0,45.23.09,90.47,0,135.71,0,14.09-.9,28.14-6.95,41.26-6.46,14-16.18,24.28-32.14,26.9-26.58,4.37-43-10.72-50.62-30.79-4.29-11.32-5.38-23.16-5.42-35.07-.15-46.46-.06-92.91-.05-139.37C372.89,168.86,373,167.93,373.11,166.51Z" transform="translate(-289.71 -166.51)"/><path class="cls-1" d="M461.36,428.7c7.77-4.54,16.57-8.78,24.37-14.41,23.16-16.73,35.84-40.2,40.49-67.91A244.76,244.76,0,0,0,529.4,308c.37-43.22.14-86.44.14-129.65v-5.27a15.88,15.88,0,0,1,2.51,1.11c12.53,8.85,19.86,20.94,19.93,36.27q.42,87,.07,174c0,23.46-20.47,43.91-43.84,44.2C492.29,428.86,476.36,428.7,461.36,428.7Z" transform="translate(-289.71 -166.51)"/><path class="cls-1" d="M311.51,173.09v5.63c0,45.52-.16,91,.13,136.57.13,20.55,3.24,40.7,12,59.58,11.39,24.59,29.78,41.89,54.77,52.23a5.45,5.45,0,0,1,2.41,1.61c-15.5,0-31,.09-46.49-.07a43.52,43.52,0,0,1-10.39-1.44,45.08,45.08,0,0,1-34.14-43.66q-.13-86,0-171.94c0-14.59,6.18-26.37,17.45-35.54C308.33,175.17,309.56,174.44,311.51,173.09Z" transform="translate(-289.71 -166.51)"/></svg>